{"glyphs":{":":{"x_min":0,"x_max":147,"ha":147,"o":"m 80 231 q 88 231 99 228 q 110 224 112 214 q 113 209 113 205 q 113 197 112 191 q 110 184 109 182 q 102 172 89 172 q 79 172 69 178 q 59 184 57 194 q 56 196 56 199 q 56 208 61 218 q 65 228 73 230 q 75 231 80 231 z m 80 123 q 88 123 99 119 q 110 115 112 105 q 113 101 113 96 q 113 88 112 82 q 110 76 109 73 q 102 64 89 64 q 79 64 69 70 q 59 75 57 85 q 56 88 56 90 q 56 99 61 109 q 65 119 73 122 q 75 123 80 123 z"},"$":{"x_min":0,"x_max":566,"ha":566,"o":"m 270 689 q 304 689 308 654 l 308 635 q 316 636 325 636 q 377 636 428 609 q 478 583 511 542 q 543 501 543 458 q 543 454 543 449 q 530 338 333 338 q 316 338 297 339 l 294 281 q 340 267 381 244 q 422 221 450 175 q 463 150 463 125 q 463 94 435 64 q 407 35 342 8 l 292 -2 q 291 -15 291 -26 q 291 -57 296 -89 q 289 -92 281 -92 q 268 -92 257 -86 q 245 -81 239 -76 q 242 -54 242 -31 q 242 -20 242 -8 q 242 -4 242 -1 q 181 8 156 44 q 132 80 121 125 q 120 128 119 131 q 130 120 140 106 q 150 93 161 82 q 173 70 191 62 q 209 55 238 55 l 245 55 l 243 250 q 176 276 120 310 q 64 343 44 398 q 37 427 37 450 q 37 489 55 516 q 73 543 102 562 q 131 582 164 600 q 165 601 166 601 q 209 620 252 630 l 253 688 q 263 689 270 689 z m 299 389 l 304 389 q 352 389 388 406 q 424 423 445 450 q 465 477 465 504 q 465 527 449 547 q 433 567 398 580 q 363 592 308 593 z m 252 581 q 192 565 151 524 q 111 482 111 434 q 111 408 124 383 q 138 358 168 336 q 198 314 247 296 l 245 345 q 197 353 175 373 q 152 392 146 419 q 147 418 149 417 q 171 407 194 398 q 216 390 240 390 q 244 390 249 391 z m 292 236 l 286 57 q 331 67 364 99 q 397 130 397 163 q 397 188 373 208 q 349 228 292 236 z"},"?":{"x_min":0,"x_max":415,"ha":415,"o":"m 66 345 q 50 355 39 384 q 28 413 28 447 q 28 475 37 503 q 46 531 65 553 q 85 576 118 589 q 181 611 229 611 q 301 611 340 567 q 379 522 383 446 l 383 437 q 383 395 368 359 q 354 323 331 292 q 309 261 283 236 q 257 210 235 189 q 212 169 197 153 q 183 138 182 127 q 181 110 173 103 q 166 95 156 95 q 138 95 122 113 q 118 118 118 126 q 118 169 224 282 q 283 345 307 387 q 331 429 331 472 q 331 501 314 521 q 297 540 270 550 q 243 560 215 560 q 193 560 173 554 q 153 549 138 537 q 119 522 111 504 q 104 485 104 466 q 104 446 109 427 q 114 408 120 393 q 122 387 124 382 q 125 377 125 374 q 125 358 112 349 q 99 339 84 339 q 74 339 66 345 z m 118 43 q 134 54 147 54 q 152 54 157 53 q 165 50 170 41 q 176 32 176 17 q 176 8 173 -3 q 166 -31 144 -31 q 129 -31 110 -17 q 96 -4 96 7 q 96 20 104 29 q 112 39 118 43 z"},"<":{"x_min":0,"x_max":293,"ha":293,"o":"m 228 247 l 229 247 q 239 247 247 239 q 254 230 254 222 q 254 218 251 214 q 248 209 225 196 q 203 183 173 167 q 142 152 114 140 q 122 136 129 132 q 164 114 197 97 q 229 81 239 74 q 254 62 254 51 q 254 45 250 42 q 246 38 237 37 l 236 37 q 225 37 196 49 q 167 61 135 78 q 103 94 78 108 q 54 123 50 127 q 47 131 47 135 l 47 138 q 47 149 62 161 q 70 166 95 179 q 121 193 152 208 q 182 224 205 235 q 228 247 228 247 z"},"'":{"x_min":0,"x_max":156,"ha":156,"o":"m 59 628 q 60 635 60 647 q 60 656 60 667 q 60 679 60 691 q 60 711 62 728 q 64 744 73 748 q 75 749 80 750 q 85 750 90 750 q 99 750 106 747 q 113 743 115 731 q 117 722 117 713 q 117 684 105 665 q 94 646 81 637 q 68 628 61 628 q 60 628 59 628 z"},"=":{"x_min":0,"x_max":315,"ha":315,"o":"m 260 217 q 268 214 271 207 q 275 200 275 193 q 275 184 268 178 q 260 174 221 172 q 182 169 140 169 q 111 169 89 171 q 67 173 60 177 q 49 184 49 191 q 49 198 56 204 q 63 209 74 211 q 83 213 112 214 q 141 215 175 216 q 209 216 235 217 q 260 217 260 217 z m 260 141 q 268 138 271 131 q 275 124 275 117 q 275 107 268 102 q 260 99 221 96 q 182 93 141 93 q 112 93 90 95 q 67 97 60 101 q 49 108 49 115 q 49 122 56 128 q 63 133 74 135 q 83 137 112 138 q 141 139 175 139 q 209 140 235 141 q 260 141 260 141 z"},"a":{"x_min":0,"x_max":317,"ha":317,"o":"m 176 382 q 197 380 216 371 q 235 362 245 345 q 248 333 248 315 q 248 282 243 237 q 239 187 239 146 q 239 134 239 125 q 242 86 251 64 q 260 43 272 43 q 282 43 292 61 q 303 80 311 120 q 318 158 322 195 q 322 202 325 205 q 329 208 333 208 q 338 208 342 205 q 345 202 345 196 q 339 116 323 63 q 307 10 271 4 q 264 4 258 4 q 231 4 215 15 q 198 26 188 44 q 179 62 174 81 q 170 101 169 119 q 161 80 146 47 q 132 15 103 1 q 97 0 92 0 q 67 0 46 24 q 25 48 13 87 q 0 126 0 172 q 0 227 22 281 q 44 335 95 373 q 130 371 170 355 q 173 371 176 382 z m 167 331 l 165 331 q 144 331 129 305 q 115 279 105 243 q 95 207 90 172 q 85 137 83 116 l 83 110 q 83 84 90 73 q 97 61 107 61 q 119 61 131 74 q 143 87 149 109 q 152 119 155 149 q 159 179 162 218 q 162 272 167 331 z"},"L":{"x_min":0,"x_max":451,"ha":451,"o":"m 221 668 q 232 668 243 666 q 283 661 305 624 q 327 587 327 508 q 327 481 325 450 q 322 418 309 352 q 296 285 272 208 q 248 130 213 65 q 242 68 269 68 q 331 68 379 54 q 428 41 456 14 q 484 -12 484 -48 q 484 -68 475 -91 q 422 -42 350 -22 q 278 -1 209 -1 q 185 -1 163 -3 q 127 -38 95 -38 q 83 -38 71 -32 q 59 -24 59 -10 q 59 6 74 23 q 89 41 120 49 q 168 143 206 269 q 243 395 256 487 q 260 520 260 543 q 260 587 249 606 q 238 625 221 625 q 194 625 162 590 q 130 554 108 501 q 95 465 95 424 q 95 391 104 356 q 90 353 78 353 q 41 353 20 378 q 0 404 0 443 q 0 466 7 492 q 15 518 31 544 q 64 598 115 632 q 166 667 221 668 z"},"3":{"x_min":0,"x_max":504,"ha":504,"o":"m 72 449 q 69 434 58 434 q 47 434 33 446 q 20 458 9 480 q -1 502 -1 532 q -1 560 12 593 q 47 635 81 659 q 115 684 146 693 q 177 703 205 703 q 231 703 253 697 q 276 691 294 683 q 312 674 324 667 q 359 643 375 612 q 390 581 390 549 q 390 504 365 465 q 341 426 301 408 q 333 392 363 366 q 393 340 412 305 q 432 270 432 226 q 432 199 423 170 q 414 141 393 108 q 352 61 305 39 q 257 18 211 18 q 161 18 118 39 q 75 61 49 97 q 23 133 23 177 q 23 187 24 197 q 41 149 89 123 q 138 97 195 97 q 240 97 282 115 q 324 132 351 168 q 379 204 383 260 q 373 304 330 330 q 288 356 240 356 q 217 356 196 349 q 174 341 158 325 q 150 322 144 322 q 127 322 118 335 q 109 348 101 365 q 98 372 95 377 q 165 411 210 439 q 255 467 280 492 q 305 517 315 538 q 324 560 324 580 q 324 593 322 606 q 319 619 315 631 q 273 648 237 648 q 198 648 167 631 q 136 614 115 587 q 93 560 82 527 q 71 495 71 464 q 71 456 72 449 z"},";":{"x_min":0,"x_max":157,"ha":157,"o":"m 87 232 q 96 232 107 228 q 118 224 120 214 q 121 209 121 205 q 121 197 120 191 q 118 184 117 182 q 109 173 97 173 q 86 173 77 178 q 67 184 64 194 q 64 196 64 199 q 64 208 69 218 q 73 228 81 231 q 83 231 84 231 q 85 231 87 232 z m 95 118 q 104 118 112 114 q 120 110 122 99 q 123 89 123 81 q 123 55 113 40 q 103 25 90 20 q 78 14 70 14 q 67 14 65 15 q 66 21 66 32 q 66 40 66 49 q 66 59 66 68 q 66 85 68 99 q 71 112 79 115 q 84 117 95 118 z"},"J":{"x_min":0,"x_max":443,"ha":443,"o":"m 33 544 q 49 571 75 599 q 102 627 138 647 q 175 667 222 667 q 233 667 245 666 q 299 658 332 610 q 366 562 381 492 q 396 422 396 352 q 396 334 396 318 q 393 271 384 221 q 375 171 358 125 q 341 79 316 42 q 292 5 260 -17 q 228 -39 187 -39 l 187 -39 q 140 -39 108 -22 q 77 -5 55 28 q 39 55 39 82 q 39 113 53 136 q 68 159 83 162 q 94 77 126 42 q 157 6 184 6 l 186 6 q 230 6 265 89 q 300 172 306 315 q 307 329 307 345 q 307 393 301 455 q 294 517 278 564 q 262 612 231 623 q 228 624 223 624 q 196 624 164 589 q 132 554 110 500 q 97 464 97 423 q 97 391 105 356 q 91 353 79 353 q 42 353 22 378 q 1 404 1 443 q 1 466 9 492 q 17 518 33 544 z"},"V":{"x_min":0,"x_max":588,"ha":588,"o":"m 497 643 q 498 656 502 661 q 507 667 515 667 q 529 667 547 647 q 564 627 567 595 q 561 455 549 352 q 537 250 522 180 q 507 110 490 67 q 474 24 456 1 q 439 -22 422 -30 q 405 -38 390 -38 q 354 -38 331 -10 q 307 17 293 62 q 279 108 272 165 q 266 222 263 284 q 260 345 259 403 q 258 492 252 552 q 247 613 229 623 q 225 624 221 624 q 194 624 162 589 q 130 553 108 500 q 96 465 96 423 q 96 391 104 356 q 90 353 77 353 q 41 353 21 378 q 0 404 0 443 q 0 466 8 492 q 15 518 31 544 q 68 601 125 631 q 183 660 243 666 l 248 666 q 281 666 301 633 q 320 601 330 548 q 340 495 344 430 q 348 366 350 299 q 352 201 360 125 q 368 49 395 27 q 398 24 402 24 q 421 24 438 83 q 456 141 469 230 q 482 319 490 418 q 498 517 498 597 q 498 622 497 643 z"},"\"":{"x_min":0,"x_max":244,"ha":244,"o":"m 79 628 q 80 635 80 647 q 80 656 80 667 q 80 679 80 691 q 80 711 82 728 q 84 744 93 748 q 95 749 100 750 q 104 750 110 750 q 118 750 126 746 q 134 742 136 731 q 137 722 137 714 q 137 685 125 666 q 114 646 101 637 q 88 628 81 628 q 80 628 79 628 z m 148 628 q 149 635 149 647 q 149 656 149 667 q 149 679 149 691 q 149 711 151 728 q 154 744 162 748 q 165 749 169 750 q 174 750 179 750 q 188 750 195 746 q 203 742 205 731 q 206 722 206 713 q 206 684 195 665 q 184 646 170 637 q 157 628 150 628 q 149 628 148 628 z"},"7":{"x_min":0,"x_max":468,"ha":468,"o":"m 1 696 l 15 696 q 129 696 236 701 q 293 704 352 705 q 360 699 368 693 q 386 681 398 668 q 411 656 411 639 q 411 632 408 623 l 286 398 l 346 396 q 370 389 388 379 q 406 369 406 351 q 406 346 404 340 l 254 340 q 254 340 230 292 q 205 245 173 183 q 141 122 115 75 q 90 27 85 23 q 78 18 71 18 q 58 18 48 30 q 39 41 30 55 q 24 64 19 71 l 160 338 l 79 332 l 69 332 q 44 332 32 336 q 20 340 15 348 q 11 355 9 363 q 7 368 5 373 l 186 395 l 324 632 l 105 625 q 96 624 88 624 q 58 624 42 634 q 25 644 18 657 q 10 670 6 683 q 4 691 1 696 z"},"S":{"x_min":0,"x_max":501,"ha":501,"o":"m 404 315 q 375 335 362 358 q 349 380 349 403 q 349 435 368 466 q 387 497 412 522 q 438 547 459 562 q 432 584 392 594 q 352 604 309 604 q 256 604 208 591 q 159 577 127 551 q 96 525 96 489 q 96 469 107 447 q 125 417 165 385 q 206 353 256 319 q 292 294 327 268 q 362 242 391 215 q 420 188 438 160 q 455 131 455 102 q 455 85 449 68 q 432 29 406 6 q 381 -18 351 -29 q 321 -39 290 -39 q 245 -39 204 -21 q 163 -3 136 24 q 110 52 110 82 q 110 90 113 98 q 121 124 138 145 q 156 166 168 166 q 173 166 176 163 q 148 136 148 115 q 148 94 169 80 q 190 66 222 59 q 254 51 286 51 q 324 51 353 62 q 381 72 381 94 q 381 104 374 117 q 355 145 315 171 q 275 198 226 226 q 173 254 123 288 q 73 321 38 361 q 18 386 8 410 q -1 434 -1 457 q -1 501 29 539 q 59 577 109 605 q 158 634 219 650 q 279 666 339 666 q 387 666 430 655 q 504 635 539 601 q 553 577 553 552 q 553 511 527 476 q 485 446 452 406 q 419 366 404 315 z"},"}":{"x_min":0,"x_max":251,"ha":251,"o":"m -36 818 q -36 818 -23 817 q -11 816 7 813 q 25 809 42 801 q 60 793 69 779 q 91 742 109 654 q 126 567 138 489 q 148 422 153 404 q 158 392 167 384 q 176 376 187 371 q 197 366 204 364 q 211 362 211 362 q 211 362 214 360 q 216 357 218 353 q 220 348 220 340 l 220 337 q 219 331 212 329 q 205 326 195 324 q 184 323 174 319 q 163 315 158 306 q 153 294 147 240 q 142 186 136 114 q 130 48 125 -11 q 119 -70 113 -101 q 104 -140 89 -156 q 73 -173 52 -177 q 31 -180 9 -180 q -10 -180 -19 -172 q -27 -165 -27 -155 q -27 -143 -15 -134 q -5 -130 11 -129 q 31 -128 50 -121 q 69 -113 73 -88 q 75 -63 76 9 q 78 93 83 181 q 87 269 96 298 q 103 315 111 325 q 120 335 127 341 q 135 346 140 348 q 146 350 146 350 q 146 350 138 352 q 130 354 120 360 q 110 366 102 378 q 94 390 92 409 q 91 419 90 437 q 88 480 83 546 q 77 612 63 674 q 49 735 24 766 q 16 774 4 777 q -8 780 -20 780 q -29 780 -35 779 q -42 778 -42 778 q -48 787 -48 796 q -48 807 -36 818 z"},"Z":{"x_min":0,"x_max":529,"ha":529,"o":"m 342 668 q 393 668 433 650 q 461 636 475 610 q 489 584 489 549 q 489 458 399 323 q 309 189 144 60 q 250 91 335 91 q 378 91 413 82 q 447 72 468 52 q 493 29 493 -10 q 493 -28 487 -50 q 446 -21 390 -9 q 334 3 274 3 q 208 3 147 -9 q 85 -20 42 -38 q 40 -38 38 -38 q 24 -38 13 -24 q 2 -10 2 1 q 2 3 3 6 q 23 25 72 76 q 120 127 182 196 q 243 264 301 337 q 358 409 397 472 q 436 536 436 574 q 436 597 418 607 q 397 619 369 619 q 335 619 297 604 q 258 588 224 561 q 190 534 169 498 q 147 461 147 418 q 147 388 160 356 q 146 353 133 353 q 97 353 75 379 q 54 405 54 444 q 54 467 62 493 q 70 518 87 544 q 126 602 198 634 q 269 667 342 668 z"},"x":{"x_min":0,"x_max":396,"ha":396,"o":"m 59 362 q 90 362 104 346 q 117 330 128 299 q 140 268 166 221 l 290 340 q 292 340 295 340 q 302 340 309 340 q 326 340 338 335 q 350 329 350 308 q 350 301 349 293 l 208 145 q 217 128 236 105 q 255 83 278 65 q 302 48 325 48 q 344 48 360 65 q 377 83 388 125 q 396 162 399 198 q 400 205 404 208 q 407 212 411 212 q 416 212 419 208 q 422 205 422 199 l 422 198 q 419 158 414 124 q 403 66 374 36 q 344 6 305 6 q 271 6 232 29 q 194 51 157 97 q 133 77 111 51 q 88 24 76 6 q 43 9 31 16 q 19 23 19 31 l 19 34 q 35 68 59 104 q 83 140 104 168 q 105 170 106 171 q 73 217 52 263 q 30 309 24 359 q 41 362 53 362 z"},")":{"x_min":0,"x_max":237,"ha":237,"o":"m -62 828 q -37 828 8 788 q 52 747 99 679 q 145 612 178 528 q 210 444 213 356 l 213 337 q 213 207 182 96 q 150 -14 101 -84 q 52 -155 -2 -170 q -12 -170 -12 -161 q -12 -151 -1 -138 q 21 -122 48 -81 q 74 -41 97 18 q 120 77 135 147 q 149 216 149 289 q 149 322 146 356 q 129 484 90 573 q 50 663 4 718 q -42 772 -79 794 q -86 808 -86 816 q -86 829 -62 828 z"},"&":{"x_min":0,"x_max":483,"ha":483,"o":"m 297 560 q 292 560 287 560 q 253 559 222 553 q 192 547 171 525 q 150 504 146 457 q 164 451 182 451 q 197 451 211 454 q 225 457 239 461 q 243 461 246 462 q 254 456 265 448 q 275 441 284 434 q 292 427 292 420 q 292 418 292 417 q 230 395 182 358 q 134 322 108 261 q 86 216 86 158 q 86 126 95 97 q 104 68 125 49 q 146 31 181 31 q 198 31 219 36 q 249 51 267 73 q 285 95 293 120 q 301 145 301 167 q 301 207 282 226 l 208 228 q 185 237 178 249 q 170 262 168 276 q 167 284 164 292 l 428 288 q 431 282 435 275 q 441 264 445 254 q 450 243 450 234 q 450 229 448 225 l 332 224 q 350 180 350 142 q 350 96 328 62 q 306 27 271 8 q 237 -12 199 -12 q 178 -12 157 -5 q 123 12 94 42 q 66 72 49 113 q 32 153 32 199 q 32 250 57 304 q 81 359 137 413 q 117 443 107 469 q 98 496 98 517 q 98 550 117 573 q 136 596 167 609 q 199 623 236 628 l 297 580 z"},"_":{"x_min":0,"x_max":439,"ha":439,"o":"m 377 -1 q 385 -5 389 -12 q 393 -19 393 -25 q 393 -35 385 -41 q 380 -43 349 -45 q 318 -47 273 -48 q 229 -49 185 -49 q 139 -49 104 -48 q 69 -46 61 -42 q 50 -35 50 -27 q 50 -21 57 -15 q 64 -9 75 -7 q 85 -6 132 -5 q 178 -4 234 -3 q 291 -2 334 -2 q 377 -1 377 -1 z"},"v":{"x_min":0,"x_max":334,"ha":334,"o":"m 203 200 q 188 221 175 264 q 161 307 161 348 q 161 378 173 400 q 186 421 216 422 l 218 422 q 239 422 251 413 q 264 404 269 388 q 273 372 273 353 q 273 321 265 287 q 257 253 249 228 q 248 224 247 219 q 256 186 273 168 q 290 151 306 151 q 316 151 324 159 q 333 167 335 185 q 336 187 336 189 q 336 191 336 193 q 337 201 341 204 q 344 208 349 208 q 353 208 356 204 q 360 201 360 194 l 360 193 q 359 191 359 188 q 359 186 359 183 q 355 150 338 135 q 320 120 297 120 q 278 120 260 130 q 242 141 230 161 q 214 103 194 59 q 175 15 153 -3 q 99 4 68 41 q 38 79 22 134 q 7 190 -4 252 q -15 316 -31 373 q -16 374 0 374 q 21 374 41 369 q 60 364 73 347 q 86 331 91 299 q 97 265 102 231 q 107 186 116 141 q 125 96 144 51 q 176 114 203 200 z m 239 383 q 235 388 232 388 q 225 388 221 372 q 218 355 218 334 q 218 298 226 267 q 230 284 236 315 q 241 346 241 367 q 241 377 239 383 z"},"O":{"x_min":0,"x_max":488,"ha":488,"o":"m 262 663 q 271 663 281 661 q 334 649 367 605 q 400 560 415 492 q 430 424 430 346 q 430 325 429 303 q 425 220 400 143 q 375 65 333 15 q 290 -36 231 -38 l 229 -38 q 175 -38 133 -11 q 91 16 62 61 q 33 107 18 165 q 3 224 2 288 q 2 327 8 372 q 14 417 27 461 q 39 505 58 541 q 77 577 103 599 q 128 621 161 621 q 167 621 172 620 q 186 640 210 652 q 234 663 260 663 z m 284 592 q 268 592 254 582 q 241 571 232 550 q 224 529 224 497 q 224 448 249 372 q 237 369 226 369 q 196 369 177 386 q 157 403 148 431 q 138 458 138 489 q 138 508 142 526 q 127 499 112 429 q 97 360 97 281 q 97 227 107 176 q 125 100 157 60 q 189 20 227 20 q 260 20 293 55 q 326 91 351 166 q 368 219 375 267 q 382 314 382 356 q 382 410 373 452 q 365 494 354 521 q 344 548 336 560 q 312 592 284 592 z"},"(":{"x_min":0,"x_max":230,"ha":230,"o":"m 306 828 q 331 829 331 816 q 331 808 323 794 q 286 772 240 718 q 194 663 154 573 q 115 484 98 356 q 94 322 94 289 q 94 216 109 146 q 124 77 147 18 q 170 -41 196 -81 q 222 -122 246 -138 q 255 -151 255 -161 q 255 -169 246 -170 q 192 -155 143 -84 q 94 -14 62 95 q 31 205 31 335 l 31 356 q 34 444 66 528 q 99 612 146 679 q 192 747 237 788 q 281 828 306 828 z"},"C":{"x_min":0,"x_max":449,"ha":449,"o":"m 288 460 q 317 470 332 499 q 348 527 348 558 q 348 583 336 601 q 325 620 300 620 l 297 620 q 228 614 182 562 q 137 510 115 432 q 93 354 93 273 q 93 206 107 147 q 122 87 151 49 q 180 10 222 3 q 260 3 299 44 q 337 86 345 170 q 377 160 390 137 q 404 115 404 94 q 404 85 402 78 q 395 48 373 21 q 350 -5 314 -22 q 279 -39 234 -39 q 170 -39 125 -12 q 81 14 53 60 q 25 107 13 170 q 0 232 0 306 l 0 311 q 1 406 34 485 q 67 564 127 613 q 187 662 269 667 q 320 667 354 647 q 387 627 403 596 q 418 565 418 533 q 418 498 401 469 q 384 439 350 428 q 343 425 335 425 q 318 425 304 435 q 290 445 288 460 z"},"W":{"x_min":0,"x_max":786,"ha":786,"o":"m 220 667 q 232 667 243 666 q 270 662 290 644 q 311 626 322 591 q 333 556 333 500 q 333 477 331 450 q 322 360 322 245 q 322 189 326 139 q 330 89 339 58 q 348 26 364 26 q 366 26 369 27 q 396 40 414 94 q 432 148 442 224 q 453 300 458 377 q 463 455 466 515 q 468 553 469 577 q 470 587 474 592 q 479 597 484 597 q 491 597 499 593 q 518 583 533 565 q 549 548 553 529 q 550 475 547 414 q 544 353 544 293 q 544 201 555 126 q 566 52 596 26 q 600 23 604 23 q 623 23 640 82 q 657 140 671 229 q 684 318 692 417 q 700 516 700 596 q 700 621 699 642 q 699 655 704 661 q 709 667 716 667 q 731 667 749 646 q 766 626 769 595 q 762 454 750 352 q 739 250 724 180 q 709 110 692 67 q 675 23 658 0 q 641 -22 624 -30 q 607 -38 592 -38 q 555 -38 530 -18 q 506 2 492 38 q 478 73 471 119 q 450 62 419 16 q 388 -30 350 -37 q 344 -38 338 -38 q 308 -38 288 -16 q 269 5 257 42 q 246 79 241 125 q 237 172 237 222 q 237 299 243 371 q 250 443 255 486 q 259 519 259 543 q 259 586 248 605 q 237 625 220 625 q 194 625 162 589 q 130 554 108 500 q 95 465 95 423 q 95 391 104 356 q 89 353 77 353 q 41 353 20 378 q 0 404 0 443 q 0 466 7 492 q 15 518 31 544 q 64 598 115 633 q 167 667 220 667 z"},"A":{"x_min":0,"x_max":721,"ha":721,"o":"m 473 668 q 488 668 498 663 q 508 657 510 642 q 524 575 533 463 q 539 397 546 328 q 613 339 666 356 q 673 355 677 349 q 682 343 682 334 q 682 321 671 307 q 661 293 636 284 q 613 277 554 273 q 567 174 597 102 q 626 29 681 11 q 669 -13 643 -25 q 617 -37 594 -37 q 580 -37 571 -33 q 537 -1 513 82 q 490 165 475 269 q 413 267 351 266 q 349 266 348 266 q 312 198 273 134 q 233 71 191 21 q 167 -6 129 -25 q 92 -44 60 -44 q 35 -44 19 -30 q 0 -10 0 20 q 0 31 5 42 q 9 54 19 62 q 40 46 63 46 q 98 46 136 76 q 173 105 211 155 q 249 204 283 266 q 201 266 183 269 q 175 271 172 273 q 169 276 169 280 q 169 283 170 286 q 172 289 174 291 q 176 293 178 295 q 180 296 180 296 q 180 296 214 297 q 248 298 302 302 q 352 399 385 496 q 418 593 423 661 q 452 668 473 668 z m 448 483 q 415 402 368 306 q 417 310 468 316 q 456 405 448 483 z"},"f":{"x_min":0,"x_max":200,"ha":200,"o":"m 74 374 q 93 374 107 366 q 122 359 131 349 q 141 339 146 332 q 151 324 151 324 q 156 302 156 280 q 156 240 136 202 q 117 165 70 132 l 67 80 q 88 56 117 56 q 141 56 163 72 q 185 88 195 121 q 202 157 206 193 q 207 201 210 204 q 213 208 218 208 q 222 208 226 204 q 229 201 229 194 l 229 193 q 226 153 220 119 q 211 67 187 43 q 164 19 136 13 q 146 -14 151 -46 q 156 -78 156 -108 q 156 -151 149 -184 q 143 -217 134 -226 q 112 -240 94 -240 q 67 -240 48 -218 q 29 -196 17 -165 q 6 -134 3 -104 q 3 -104 2 -57 q 0 -10 0 56 q 0 122 4 192 q 7 262 18 312 q 28 361 48 370 q 62 374 74 374 z m 92 343 q 76 261 75 176 q 82 177 95 196 q 109 215 121 242 q 133 270 133 295 q 133 312 124 326 q 115 339 92 343 z m 65 25 q 66 1 66 -21 q 66 -77 70 -123 q 73 -168 88 -195 q 97 -208 103 -208 q 107 -208 111 -201 q 114 -195 116 -186 q 126 -150 126 -109 q 126 -71 117 -37 q 108 -3 89 15 q 75 19 65 25 z"},"Q":{"x_min":0,"x_max":488,"ha":488,"o":"m 261 663 q 271 663 280 661 q 333 649 366 604 q 399 559 414 491 q 429 422 429 344 q 429 323 428 302 q 424 220 399 142 q 374 65 331 14 q 416 -48 458 -59 q 451 -81 432 -97 q 414 -113 390 -113 q 371 -113 351 -98 q 317 -71 276 -29 q 255 -39 230 -39 l 229 -39 q 174 -39 132 -12 q 90 15 61 61 q 33 107 18 165 q 2 224 1 288 l 1 290 q 1 329 8 374 q 14 419 26 462 q 39 506 58 542 q 77 577 102 599 q 128 620 161 620 q 166 620 172 620 q 186 640 210 652 q 234 663 261 663 z m 283 591 q 268 591 254 581 q 240 571 232 550 q 223 529 223 496 q 223 447 249 371 q 236 369 226 369 q 196 369 176 386 q 157 403 147 430 q 137 458 137 489 q 137 507 141 526 q 126 499 111 429 q 96 360 96 282 q 96 227 107 176 q 125 100 157 60 q 189 20 226 20 l 231 20 q 207 46 194 64 q 190 70 190 80 q 190 90 194 100 q 198 109 207 112 q 246 79 286 48 q 323 83 350 166 q 367 218 374 266 q 381 313 381 354 q 381 409 373 451 q 364 493 354 521 q 343 548 335 559 q 312 591 283 591 z"},"w":{"x_min":0,"x_max":485,"ha":485,"o":"m 361 382 l 363 382 q 378 382 394 377 q 409 373 415 364 q 417 334 417 307 q 417 273 415 243 q 416 206 423 183 q 429 161 439 151 q 448 141 458 141 q 469 141 477 150 q 485 160 487 174 q 488 184 489 193 q 490 201 493 204 q 497 208 501 208 q 505 208 509 204 q 512 201 512 194 l 512 193 q 512 183 510 173 q 507 145 492 129 q 477 113 456 113 q 431 113 402 139 q 385 66 362 37 q 339 7 321 3 q 303 -1 287 -1 q 246 -1 218 27 q 190 56 181 112 q 168 68 152 37 q 137 6 115 0 q 109 0 104 0 q 73 0 53 25 q 32 50 20 91 q 8 132 3 180 q -2 228 -2 273 q -2 324 3 363 q 9 372 18 376 q 26 379 36 379 q 53 379 69 372 q 86 364 96 354 q 98 353 98 344 q 98 332 95 307 q 92 286 90 258 q 87 230 87 198 q 87 159 93 117 q 99 75 114 33 q 140 78 153 139 q 166 199 174 267 q 181 320 190 373 q 193 374 197 374 q 211 374 226 366 q 241 358 255 348 q 257 346 259 345 q 261 340 261 328 q 261 311 259 282 q 256 242 256 195 q 256 143 264 97 q 272 51 297 34 q 319 53 330 92 q 341 131 345 179 q 349 228 349 272 q 349 325 346 359 q 346 373 346 380 q 352 382 361 382 z"},"-":{"x_min":0,"x_max":315,"ha":315,"o":"m 265 184 q 272 180 276 173 q 280 166 280 159 q 280 149 272 144 q 264 141 225 138 q 186 136 144 136 q 116 136 94 137 q 71 139 64 143 q 53 150 53 157 q 53 165 60 170 q 67 176 78 177 q 87 179 116 180 q 146 181 179 182 q 213 183 239 183 q 265 184 265 184 z"},"E":{"x_min":0,"x_max":399,"ha":399,"o":"m 291 551 q 300 569 300 587 q 300 604 291 617 q 281 630 260 630 q 256 630 253 629 q 227 626 212 599 q 197 573 197 539 q 197 513 208 487 q 218 462 240 445 q 263 428 299 425 q 311 413 316 401 q 320 390 323 378 q 323 375 324 371 q 237 351 185 311 q 132 270 108 219 q 84 169 84 123 q 84 73 108 37 q 132 2 171 2 q 177 2 182 3 q 220 8 257 47 q 294 85 301 169 q 333 159 346 136 q 360 114 360 93 q 360 84 358 77 q 348 31 303 -3 q 258 -36 190 -40 l 181 -40 q 149 -40 117 -29 q 85 -19 59 2 q 33 23 17 57 q 1 90 1 136 q 1 153 4 172 q 14 248 74 313 q 135 378 234 411 q 188 422 159 443 q 130 464 116 491 q 102 518 102 545 q 102 589 134 625 q 167 660 225 666 q 234 667 243 667 q 281 667 309 653 q 338 639 348 612 q 351 603 351 595 q 351 574 337 560 q 324 545 308 545 q 299 545 291 551 z"},"s":{"x_min":0,"x_max":187,"ha":187,"o":"m 5 193 l 6 208 q 6 215 6 224 q 6 233 6 249 q 6 264 2 284 q 0 297 0 309 q 0 328 9 349 q 18 370 58 376 q 76 375 80 361 q 81 356 81 352 q 81 342 76 329 q 70 316 58 307 l 58 303 q 58 289 69 270 q 79 255 93 236 q 116 205 141 166 q 165 127 176 91 q 180 77 180 64 q 180 44 167 24 q 153 3 93 -3 q 49 -3 26 15 q 5 32 -4 50 q -10 39 -17 28 q -20 24 -24 24 q -25 24 -28 26 q -31 27 -34 33 q -34 35 -34 37 q -34 42 -31 47 q -16 68 -5 120 q 2 156 5 193 z m 2 63 l 4 62 q 19 51 38 43 q 44 41 51 41 q 65 41 81 51 q 96 67 96 86 q 96 97 87 118 q 79 139 54 174 q 44 188 35 204 q 32 208 30 212 q 29 201 29 193 q 25 149 16 106 q 11 83 2 63 z"},">":{"x_min":0,"x_max":293,"ha":293,"o":"m 74 37 l 73 37 q 62 37 55 44 q 47 52 47 61 q 47 65 50 69 q 54 74 76 87 q 98 100 129 116 q 159 131 187 144 q 151 162 112 182 q 74 202 62 209 q 47 221 47 232 q 47 238 52 242 q 56 246 64 247 l 65 247 q 76 247 105 234 q 134 222 166 206 q 199 189 223 175 q 248 161 252 156 q 254 152 254 146 q 254 135 239 123 q 231 118 206 104 q 180 90 150 75 q 120 60 97 48 q 74 37 74 37 z"},"l":{"x_min":0,"x_max":202,"ha":202,"o":"m 125 619 q 137 619 151 614 q 166 608 179 600 q 192 592 200 579 q 208 566 208 545 q 207 486 187 415 q 167 344 139 289 q 110 234 81 225 q 82 163 89 126 q 96 90 106 72 q 116 55 125 49 q 135 44 141 44 l 142 44 q 152 44 168 62 q 185 81 193 121 q 201 157 204 193 q 205 201 208 204 q 212 208 216 208 q 221 208 224 204 q 228 201 228 194 l 228 193 q 227 190 227 185 q 226 170 223 148 q 221 125 215 100 q 208 75 197 53 q 186 31 168 17 q 150 2 124 2 l 118 2 q 75 6 49 36 q 23 67 12 116 q 0 166 0 226 q 0 317 21 413 q 42 509 71 577 q 89 618 125 619 z m 153 585 q 139 556 124 491 q 108 425 97 361 q 86 297 85 272 q 104 286 120 338 q 136 390 146 452 q 156 515 156 555 q 156 575 153 585 z"},"8":{"x_min":0,"x_max":455,"ha":455,"o":"m 258 721 q 268 721 276 719 q 333 708 367 662 q 402 616 402 551 q 402 523 395 494 l 282 266 q 291 231 291 198 q 291 149 273 108 q 256 67 222 43 q 189 18 141 18 q 132 18 123 19 q 77 35 51 59 q 24 83 13 112 q 2 141 2 172 q 2 205 11 237 q 32 295 59 343 q 86 391 123 422 q 88 461 73 496 q 58 531 58 561 q 58 600 79 630 q 100 660 131 680 q 163 700 197 710 q 231 721 258 721 z m 247 640 l 245 640 q 208 640 180 621 q 152 602 132 557 q 131 554 131 551 q 128 539 128 526 q 128 510 137 490 q 145 470 170 443 q 194 416 242 378 q 294 456 317 505 q 340 554 340 582 q 340 603 330 615 q 319 627 302 632 q 272 640 247 640 z m 154 344 q 103 276 80 222 q 58 167 58 131 q 58 101 71 84 q 84 67 107 67 q 112 67 117 68 q 152 71 173 91 q 194 110 203 139 q 213 169 213 202 q 213 231 206 260 q 195 305 182 322 q 168 339 154 344 z"},"\\":{"x_min":0,"x_max":554,"ha":554,"o":"m -53 844 q -53 844 47 701 q 147 557 275 371 q 403 185 503 35 q 603 -115 603 -126 q 602 -142 598 -154 q 595 -166 585 -166 q 580 -166 570 -159 q 556 -145 454 1 q 353 146 225 336 q 96 526 -3 676 q -102 826 -102 833 q -101 842 -93 847 q -85 852 -75 852 q -63 852 -53 844 z"},"e":{"x_min":0,"x_max":229,"ha":229,"o":"m 79 375 q 93 375 115 371 q 136 368 166 358 q 179 312 179 276 q 179 226 155 197 q 131 168 89 168 l 82 168 q 81 161 81 152 q 81 130 86 103 l 86 103 q 95 76 108 63 q 121 50 137 50 q 170 50 207 109 q 216 127 222 150 q 229 174 230 194 q 231 202 234 205 q 238 208 242 208 q 246 208 250 205 q 253 202 253 196 l 253 193 q 245 114 210 57 q 175 1 134 -3 q 91 -2 59 29 q 28 61 10 117 q 10 119 9 121 q 1 151 1 187 q 1 238 17 291 q 33 343 63 374 q 69 375 79 375 z m 137 346 q 124 343 112 320 q 101 296 94 267 q 86 237 83 216 q 83 211 83 208 q 83 201 86 202 q 89 202 97 207 q 119 224 131 254 q 144 283 144 312 q 144 331 137 346 z"},"b":{"x_min":0,"x_max":269,"ha":269,"o":"m 95 608 q 135 607 152 583 q 170 558 170 522 q 170 474 145 422 q 120 371 83 348 l 77 274 q 114 294 143 294 q 184 294 206 259 q 228 224 228 171 q 228 165 227 158 q 227 124 214 87 q 202 50 180 24 q 159 -1 132 -3 l 130 -3 q 106 -3 77 13 q 49 30 28 68 q 6 106 2 169 q 1 190 1 212 q 1 285 9 355 q 17 426 24 469 q 33 524 50 565 q 67 605 95 608 z m 124 575 q 107 540 101 501 q 94 463 90 423 q 88 405 85 386 q 113 411 130 445 q 147 479 147 512 q 147 530 141 546 q 136 562 124 575 z m 110 251 q 95 251 76 239 q 76 231 75 221 q 72 192 72 160 q 72 143 73 125 q 75 86 88 68 q 102 50 119 50 q 134 50 149 63 q 164 77 171 100 q 177 121 177 142 q 177 183 159 216 q 141 249 110 251 z"},"%":{"x_min":0,"x_max":516,"ha":516,"o":"m 396 650 q 407 650 417 645 q 426 639 427 628 q 427 622 410 576 q 393 531 366 462 q 309 325 246 181 q 183 38 144 -42 q 133 -49 126 -49 q 115 -49 110 -35 q 106 -22 104 -3 l 104 -3 q 104 7 125 60 q 145 113 176 188 l 292 462 q 325 539 347 590 q 370 641 370 641 q 382 650 396 650 z m 133 588 l 205 559 q 224 546 233 530 q 241 514 241 497 q 241 468 223 440 q 205 412 179 390 q 157 381 138 381 q 103 381 80 405 q 56 429 49 466 q 52 565 133 588 z m 169 539 q 155 536 140 525 q 124 514 112 498 q 101 481 101 462 q 101 447 111 431 q 121 424 133 424 q 152 424 171 441 q 182 451 190 466 q 199 481 199 498 q 199 509 192 520 q 185 531 169 539 z m 374 221 l 446 191 q 465 178 474 162 q 482 146 482 129 q 482 101 464 73 q 446 44 419 22 q 397 13 378 13 q 344 13 320 38 q 297 62 290 98 q 293 197 374 221 z m 410 171 q 396 168 380 157 q 365 146 353 130 q 341 114 341 95 q 341 79 352 63 q 362 56 374 56 q 393 56 412 74 q 422 83 431 99 q 439 114 439 130 q 439 142 433 152 q 426 163 410 171 z"},"m":{"x_min":0,"x_max":522,"ha":522,"o":"m 352 392 q 358 391 365 389 q 403 382 429 368 q 456 354 458 316 l 446 194 l 447 193 q 443 160 443 134 q 443 90 451 69 q 459 47 470 47 q 480 47 491 66 q 502 84 512 121 q 521 157 526 193 q 527 201 531 204 q 535 208 539 208 q 542 208 546 204 q 549 201 549 196 l 549 193 q 540 113 521 61 q 501 8 464 2 q 457 1 450 1 q 417 1 397 18 q 376 36 365 64 q 354 93 349 128 q 345 163 345 198 q 345 251 350 294 q 351 306 351 315 q 352 326 352 337 q 334 321 320 301 q 306 280 298 249 q 294 218 289 186 q 283 155 279 125 q 275 96 275 68 q 275 58 276 48 q 266 24 250 24 q 228 24 204 66 q 180 108 180 150 q 180 157 181 164 l 197 322 q 141 265 123 191 q 104 118 104 35 q 106 28 106 23 q 106 2 87 2 q 71 2 49 21 q 20 46 10 90 q 0 134 0 188 q 0 241 4 299 q 6 336 8 373 q 39 369 64 360 q 89 351 104 335 q 120 319 120 292 q 120 285 118 276 q 127 312 148 346 q 169 380 195 387 q 230 381 258 370 q 285 359 295 336 q 320 377 352 392 z"},"#":{"x_min":0,"x_max":519,"ha":519,"o":"m 269 482 q 277 482 283 478 q 289 474 290 467 q 290 462 278 430 q 267 399 248 352 q 274 352 300 352 q 327 352 352 353 q 375 406 390 441 q 405 476 405 476 q 414 482 422 482 q 431 482 437 478 q 443 474 444 467 q 444 462 433 431 q 421 400 403 353 q 436 353 456 353 q 477 353 477 353 q 484 350 488 343 q 492 336 492 329 q 492 319 484 313 q 481 312 454 310 q 427 309 385 308 q 374 280 362 252 q 354 231 345 210 q 393 210 424 211 q 456 211 456 211 q 463 207 467 200 q 471 193 471 187 q 471 177 463 171 q 458 169 420 167 q 382 166 326 165 q 299 100 279 56 q 258 11 251 5 q 244 0 239 0 q 231 0 229 10 q 226 19 225 32 l 225 32 q 225 39 239 75 q 252 112 273 164 q 236 163 200 163 l 171 163 q 145 99 124 55 q 104 11 97 5 q 90 0 85 0 q 77 0 74 10 q 72 19 71 32 l 71 32 q 71 39 84 75 q 98 112 119 164 q 48 165 36 170 q 25 177 25 185 q 25 192 32 198 q 39 203 49 205 q 63 206 137 208 q 155 250 173 294 q 176 300 178 305 q 129 306 96 307 q 63 309 57 312 q 46 319 46 326 q 46 333 53 339 q 61 345 71 347 q 78 348 112 349 q 147 350 197 351 q 220 405 236 441 q 251 476 251 476 q 259 482 269 482 z m 333 306 q 282 305 229 305 q 210 257 190 208 q 241 209 292 209 q 312 258 333 306 z"},",":{"x_min":0,"x_max":146,"ha":146,"o":"m 45 -60 q 46 -52 46 -42 q 46 -34 46 -25 q 46 -16 46 -7 q 46 10 48 24 q 51 38 59 41 q 62 42 66 43 q 71 44 77 44 q 85 44 93 40 q 100 36 102 24 q 104 15 104 7 q 104 -20 93 -34 q 83 -49 70 -54 q 58 -60 50 -60 q 47 -60 45 -60 z"},"n":{"x_min":0,"x_max":341,"ha":341,"o":"m 176 380 q 197 380 219 377 q 241 375 257 361 q 273 347 277 316 l 266 194 l 266 193 q 263 159 263 133 q 263 90 270 69 q 278 47 289 47 q 299 47 310 66 q 321 84 331 121 q 340 157 345 193 q 346 201 350 204 q 354 208 358 208 q 362 208 365 204 q 368 201 368 195 l 368 193 q 359 113 340 61 q 321 8 283 2 l 276 2 q 232 2 208 28 q 184 55 174 100 q 164 146 164 204 q 164 266 171 337 l 172 346 q 136 314 117 270 q 98 226 92 176 q 85 126 85 80 q 85 40 87 6 q 76 0 65 0 q 46 0 32 10 q 19 21 14 30 q 3 49 -1 74 q -6 99 -6 126 q -6 171 0 217 q 5 259 5 292 q 5 320 -1 339 q 8 340 17 340 q 40 340 59 331 q 79 321 91 294 q 99 321 120 346 q 142 372 176 380 z"},"h":{"x_min":0,"x_max":285,"ha":285,"o":"m 67 623 q 125 614 153 581 q 182 547 182 504 q 182 462 155 421 q 128 379 75 353 l 71 201 q 81 256 110 288 q 138 319 161 325 q 171 327 179 327 q 199 327 210 314 q 221 300 226 278 q 230 255 230 228 q 230 201 227 172 q 224 143 221 117 q 219 102 219 90 q 219 45 238 43 q 248 43 259 62 q 270 80 278 121 q 285 157 289 193 q 290 201 293 204 q 297 208 301 208 q 305 208 309 204 q 312 201 312 195 l 312 193 q 306 114 290 62 q 274 11 237 3 q 228 1 220 1 q 192 1 178 19 q 164 36 159 61 q 155 86 155 111 l 155 114 q 155 143 159 188 q 163 235 163 269 q 163 283 162 292 q 137 283 105 209 q 74 135 68 19 q 58 15 50 15 q 36 15 27 24 q 18 33 12 44 q 7 56 4 65 q 2 74 2 74 l 1 313 q 1 331 2 348 q 2 440 13 508 q 24 576 67 623 z m 121 576 q 117 570 114 565 q 104 552 97 536 q 90 520 85 488 q 80 457 78 397 l 84 404 q 107 428 122 457 q 138 486 138 517 q 138 546 121 576 z"},"z":{"x_min":0,"x_max":402,"ha":402,"o":"m 183 380 q 232 380 254 357 q 275 334 275 295 q 275 286 274 275 l 152 108 q 203 127 239 127 q 309 127 327 46 q 357 74 380 113 q 402 151 407 193 q 407 199 411 202 q 415 206 419 206 q 423 206 427 203 q 431 200 431 193 q 426 141 400 98 q 375 55 333 18 q 334 8 335 -3 q 338 -33 338 -58 q 338 -125 320 -164 q 301 -203 271 -220 q 241 -237 205 -237 q 163 -233 144 -216 q 125 -199 125 -173 q 125 -136 158 -88 q 191 -41 242 2 q 243 9 243 17 q 243 34 239 51 q 234 67 227 81 q 205 75 177 59 q 149 43 119 23 q 111 19 104 14 q 92 9 81 9 q 48 9 21 47 q 10 58 10 73 q 10 98 33 131 q 56 165 88 203 q 113 234 137 266 q 160 298 175 329 l 174 329 q 151 329 120 306 q 89 283 63 252 q 38 221 29 193 q 25 186 20 186 q 18 186 15 187 q 12 188 10 189 q 8 190 7 192 q 5 193 5 193 q 11 236 42 279 q 73 321 114 351 q 154 380 183 380 z m 244 -44 q 208 -76 189 -101 q 171 -126 166 -146 q 160 -166 160 -182 l 160 -184 l 163 -184 q 190 -184 215 -142 q 240 -100 244 -44 z"},"B":{"x_min":0,"x_max":570,"ha":570,"o":"m 255 667 q 291 667 326 657 q 361 648 393 627 q 433 601 452 560 q 471 520 471 478 q 471 429 448 389 q 426 348 384 331 q 412 324 439 312 q 466 300 487 282 q 509 264 522 237 q 535 209 535 170 q 535 152 532 131 q 522 77 483 39 q 445 1 389 -19 q 334 -39 276 -39 q 227 -39 183 -23 q 139 -6 110 28 q 103 39 103 53 q 103 73 113 91 q 124 109 138 112 q 163 62 205 36 q 247 10 292 10 q 342 10 386 41 q 422 69 441 103 q 459 137 459 168 q 459 197 445 221 q 430 245 402 259 q 373 273 331 273 q 312 281 304 289 q 296 298 292 307 q 289 312 286 317 q 333 336 361 389 q 390 441 390 496 q 390 528 378 556 q 367 583 342 601 q 317 618 276 621 q 195 617 147 564 q 99 510 99 429 q 99 394 109 355 q 95 352 83 352 q 45 352 24 379 q 2 406 2 446 q 2 491 32 544 q 67 602 127 635 q 188 667 255 667 z m 220 572 q 240 572 255 564 q 270 557 270 537 l 270 534 q 269 527 269 519 q 266 462 263 396 q 260 330 260 266 q 260 194 266 137 q 271 79 286 52 q 271 46 256 46 q 239 46 224 53 q 208 60 198 74 q 188 88 188 109 l 188 144 q 188 222 192 302 q 196 382 200 447 q 206 525 206 557 q 206 566 205 571 q 212 572 220 572 z"},"K":{"x_min":0,"x_max":635,"ha":635,"o":"m 223 667 q 234 667 245 666 q 285 661 307 624 q 330 586 330 507 q 330 481 327 450 q 324 409 320 361 q 373 430 437 500 q 501 571 563 620 q 589 639 611 639 q 634 639 651 625 q 668 611 676 590 q 632 574 527 482 q 422 390 338 290 q 364 234 414 171 q 463 108 526 60 q 589 11 655 -1 q 637 -32 615 -46 q 593 -60 569 -60 q 526 -60 480 -23 q 434 14 390 74 q 347 134 312 207 q 311 173 311 141 q 311 83 315 36 q 320 -10 332 -33 q 318 -38 303 -38 q 278 -38 256 -22 q 235 -6 230 26 q 227 55 227 98 q 227 178 236 285 q 246 393 258 487 q 262 520 262 543 q 262 587 251 606 q 240 625 223 625 q 197 625 165 589 q 132 554 111 500 q 98 465 98 424 q 98 391 106 356 q 92 353 80 353 q 43 353 23 378 q 2 404 2 443 q 2 466 10 492 q 18 518 34 544 q 66 598 118 633 q 169 667 223 667 z"},"R":{"x_min":0,"x_max":513,"ha":513,"o":"m 247 667 q 282 667 316 657 q 350 647 382 627 q 424 599 447 551 q 470 503 470 449 q 470 402 451 356 q 432 311 392 274 q 352 238 289 219 q 334 141 407 74 q 479 8 539 -6 q 509 -39 470 -39 q 408 -39 340 31 q 271 100 229 209 l 227 209 l 227 185 q 227 112 232 53 q 238 -5 252 -33 q 238 -39 223 -39 q 206 -39 190 -32 q 174 -25 164 -11 q 154 3 154 24 l 154 54 q 154 133 158 214 q 162 294 167 359 q 172 439 172 472 q 172 481 171 486 q 179 486 186 486 q 206 486 221 479 q 236 472 236 451 l 236 449 q 236 440 235 431 q 230 349 228 253 q 283 268 318 303 q 354 337 371 383 q 388 428 388 473 q 388 512 375 546 q 362 579 337 600 q 312 620 276 620 l 274 620 q 193 618 145 564 q 97 511 97 429 q 97 394 107 355 q 93 352 81 352 q 43 352 22 379 q 1 405 1 446 q 1 468 8 493 q 15 518 30 543 q 65 602 123 635 q 182 667 247 667 z"},"T":{"x_min":0,"x_max":442,"ha":442,"o":"m 672 667 q 678 654 678 640 q 678 615 662 594 q 646 573 613 566 q 554 556 491 556 q 427 556 361 562 q 356 562 352 562 q 360 553 360 539 q 348 426 348 263 q 348 166 354 82 q 361 -2 376 -33 q 362 -39 348 -39 q 323 -39 303 -23 q 283 -7 275 26 q 268 89 268 178 q 268 365 294 565 q 261 566 229 566 q 190 566 156 562 q 123 559 103 548 q 82 538 82 519 q 82 508 90 494 q 83 491 76 491 q 51 491 26 520 q 0 550 0 585 q 0 590 1 596 q 19 621 54 630 q 90 640 133 640 q 161 640 190 637 q 219 635 247 632 q 285 628 316 627 q 321 627 327 626 q 381 623 435 623 q 496 623 555 632 q 615 641 672 667 z"},"P":{"x_min":0,"x_max":452,"ha":452,"o":"m 248 667 q 283 667 317 658 q 351 648 383 627 q 425 599 448 551 q 471 503 471 450 q 471 399 449 350 q 427 300 379 264 q 332 227 256 212 q 244 209 232 209 l 228 209 l 228 185 q 228 112 233 53 q 239 -5 253 -33 q 239 -39 224 -39 q 207 -39 191 -31 q 175 -24 165 -10 q 155 4 155 25 l 155 54 q 155 133 159 214 q 163 295 167 360 q 173 439 173 472 q 173 481 172 486 q 180 487 187 487 q 207 487 222 479 q 237 472 237 452 l 237 450 q 237 441 236 433 q 231 350 229 253 q 284 268 319 303 q 354 337 372 383 q 389 428 389 473 q 389 513 376 546 q 363 580 338 600 q 313 621 277 621 l 275 621 q 194 618 146 565 q 98 511 98 430 q 98 395 108 356 q 94 353 82 353 q 44 353 23 379 q 2 406 2 446 q 2 469 9 494 q 16 519 31 544 q 66 603 124 635 q 183 667 248 667 z"},"|":{"x_min":0,"x_max":495,"ha":495,"o":""},"t":{"x_min":0,"x_max":144,"ha":144,"o":"m 20 609 q 30 604 41 600 q 55 595 67 587 q 80 580 88 566 q 96 552 96 526 l 96 524 l 95 490 q 103 490 109 491 q 125 492 140 492 l 147 492 q 154 491 159 488 q 163 484 163 479 q 163 473 152 468 q 145 466 129 465 q 113 463 94 463 q 92 424 88 363 q 84 302 80 245 q 78 215 76 193 q 74 161 74 137 q 74 86 81 63 q 88 41 98 41 l 99 41 q 122 43 138 120 q 146 156 149 193 q 150 200 153 204 q 157 207 161 207 q 166 207 169 204 q 172 200 172 194 l 172 193 q 167 113 150 60 q 133 7 96 1 q 91 1 87 1 q 74 1 63 5 q 35 17 22 48 q 8 80 4 119 q 0 158 0 193 l 0 202 q 0 249 3 325 q 6 401 10 455 q -7 453 -22 453 q -30 453 -36 454 q -45 455 -50 460 q -54 465 -54 471 q -54 475 -51 479 q -48 482 -42 483 q -34 483 -25 484 q -15 484 -5 485 q 5 485 10 486 q 13 519 15 534 q 17 547 18 563 q 20 579 20 609 z"},"M":{"x_min":0,"x_max":747,"ha":747,"o":"m 664 668 q 688 666 706 644 q 724 622 730 596 q 727 546 717 470 q 708 404 699 327 q 691 249 691 169 q 691 117 696 66 q 702 15 714 -33 q 700 -38 686 -38 q 661 -38 639 -22 q 616 -5 608 27 q 602 55 602 106 q 602 195 617 330 q 633 465 658 597 q 620 556 570 419 q 521 281 497 105 q 485 101 475 101 q 449 101 434 126 q 419 150 413 192 q 406 233 406 283 q 406 369 417 458 q 429 546 438 597 q 407 563 368 462 q 329 360 311 230 q 309 183 309 139 q 309 82 314 36 q 318 -10 330 -33 q 316 -38 302 -38 q 276 -38 255 -22 q 233 -6 229 26 q 225 55 225 98 q 225 178 235 285 q 245 393 257 487 q 261 520 261 543 q 261 587 250 606 q 239 625 222 625 q 195 625 163 589 q 131 554 109 501 q 96 465 96 424 q 96 391 105 356 q 91 353 79 353 q 42 353 21 378 q 0 404 0 443 q 0 466 8 492 q 16 518 32 544 q 65 598 117 633 q 168 667 223 667 q 233 667 244 666 q 284 661 306 624 q 328 587 328 507 q 328 481 326 450 l 326 450 q 352 546 389 607 q 426 667 458 667 q 477 667 492 646 q 508 625 512 597 q 492 429 486 266 q 505 363 538 454 q 570 546 605 607 q 640 668 664 668 z"},"g":{"x_min":0,"x_max":318,"ha":318,"o":"m 176 380 q 196 378 216 369 q 235 360 245 343 q 246 328 246 308 q 246 251 241 174 q 236 97 236 43 q 269 70 292 110 q 316 150 321 193 q 321 199 325 202 q 329 206 333 206 q 337 206 341 203 q 345 200 345 193 q 340 137 311 92 q 283 46 234 7 q 228 -73 217 -140 q 208 -195 180 -222 q 152 -250 124 -250 q 105 -250 90 -239 q 75 -228 67 -206 q 62 -192 62 -176 q 62 -135 90 -87 q 117 -40 159 -4 q 161 29 161 69 q 148 18 102 -1 q 97 -2 91 -2 q 66 -2 46 21 q 25 45 12 85 q 0 124 0 170 q 0 224 22 278 q 44 333 95 370 q 129 368 170 353 q 173 368 176 380 z m 165 328 q 144 328 129 302 q 114 277 104 240 q 95 204 90 169 q 84 134 83 114 l 83 108 q 83 84 89 74 q 96 64 106 64 q 119 64 134 79 q 148 95 155 119 q 159 144 160 170 q 162 196 162 222 q 162 228 161 233 q 161 239 161 244 q 161 286 165 328 z m 160 -43 q 130 -72 113 -110 q 95 -149 95 -174 q 95 -186 99 -192 q 103 -199 111 -199 q 117 -199 124 -196 q 140 -188 147 -165 q 155 -142 157 -109 q 160 -77 160 -43 z"},"j":{"x_min":0,"x_max":156,"ha":156,"o":"m 0 380 q 5 381 11 381 q 25 381 42 374 q 58 367 69 349 q 80 331 81 299 q 81 285 81 270 q 81 213 78 149 q 76 84 73 43 q 105 71 129 111 q 152 150 158 193 q 158 200 161 203 q 165 206 170 206 q 174 206 177 203 q 181 200 181 194 q 176 137 148 92 q 119 47 70 7 q 64 -72 54 -139 q 44 -195 17 -222 q -11 -249 -40 -249 q -58 -249 -73 -238 q -89 -227 -97 -206 q -102 -192 -102 -176 q -102 -134 -74 -87 q -47 -40 -5 -4 q 1 125 1 276 q 1 329 0 380 z m -4 -43 q -34 -72 -51 -110 q -68 -149 -68 -174 q -68 -186 -65 -192 q -61 -199 -53 -199 q -47 -199 -40 -195 q -24 -187 -17 -164 q -9 -141 -7 -109 q -4 -77 -4 -43 z m 20 488 q 32 497 42 498 q 45 499 49 499 q 54 499 59 498 q 70 494 75 479 q 78 472 78 462 q 78 453 76 442 q 70 419 52 415 q 49 415 45 415 q 30 415 12 428 q -2 439 -2 451 q -2 452 -1 458 q -1 464 6 474 q 14 483 20 488 z"},"i":{"x_min":0,"x_max":152,"ha":152,"o":"m 16 380 q 36 378 55 369 q 75 360 85 343 q 87 332 87 314 q 87 282 83 236 q 78 186 78 144 q 78 132 79 123 q 82 84 90 62 q 98 41 108 41 q 117 41 127 60 q 136 78 145 118 q 146 125 147 129 q 150 146 153 159 q 155 173 157 191 q 158 199 161 203 q 165 207 168 207 q 173 207 177 203 q 180 199 180 192 l 180 190 q 176 133 168 91 q 161 49 146 26 q 131 2 104 2 l 104 2 q 73 2 54 16 q 36 30 26 51 q 16 71 11 92 q 7 112 5 127 q 5 130 4 132 q 1 159 1 211 q 1 255 4 302 q 8 350 16 380 z m 30 488 q 46 499 59 499 q 64 499 69 498 q 78 495 83 485 q 88 476 88 461 q 88 453 86 442 q 78 414 57 414 q 42 414 22 428 q 9 440 9 452 q 9 464 17 474 q 24 484 30 488 z"},"y":{"x_min":0,"x_max":360,"ha":360,"o":"m 216 380 q 240 381 261 363 q 283 345 285 298 q 286 285 286 270 q 286 213 283 148 q 280 84 277 43 q 310 70 333 110 q 357 150 362 193 q 362 199 366 202 q 370 206 374 206 q 378 206 382 203 q 385 200 385 194 l 385 193 q 380 137 352 92 q 324 46 275 7 q 269 -73 258 -140 q 249 -195 221 -222 q 193 -250 165 -250 q 146 -250 131 -239 q 116 -228 108 -206 q 103 -192 103 -176 q 103 -135 130 -87 q 158 -40 200 -4 q 202 43 204 103 q 199 90 194 74 q 187 58 174 42 q 162 25 145 13 q 129 1 111 1 l 111 1 q 72 2 49 30 q 25 57 15 103 q 5 148 5 203 q 5 290 24 380 q 59 374 79 354 q 99 334 99 293 l 99 291 q 96 258 93 222 q 90 185 90 150 q 90 123 93 99 q 95 75 101 56 q 108 36 118 36 q 126 36 138 53 q 173 106 185 178 q 197 249 200 320 q 202 352 205 380 q 210 380 216 380 z m 200 -43 q 171 -72 154 -111 q 136 -149 136 -175 q 136 -186 140 -193 q 144 -199 152 -199 q 157 -199 165 -196 q 180 -188 188 -165 q 196 -142 198 -109 q 200 -77 200 -43 z"},"@":{"x_min":0,"x_max":537,"ha":537,"o":"m 231 512 l 399 481 q 487 443 498 313 q 500 292 500 268 q 500 228 493 185 q 486 142 468 111 q 450 80 416 72 q 380 72 358 85 q 335 98 324 121 q 313 145 310 177 q 300 100 258 100 q 250 100 239 103 q 200 123 183 155 q 166 187 166 222 q 166 263 184 301 q 201 340 229 365 l 236 365 q 277 365 300 357 q 323 349 342 338 q 355 330 373 323 q 372 309 370 285 q 364 245 364 200 q 364 165 372 135 q 379 105 401 92 q 431 116 446 176 q 461 236 461 298 q 461 349 450 388 q 438 424 399 441 q 361 458 319 458 q 294 458 272 453 q 250 447 235 436 q 182 395 149 331 q 117 268 117 190 q 117 139 134 83 q 151 28 189 -30 q 204 -51 223 -60 q 243 -69 264 -69 q 303 -69 337 -47 q 372 -26 382 1 q 388 4 393 4 q 401 4 405 -1 q 409 -6 409 -12 q 409 -14 408 -16 q 405 -21 401 -25 q 383 -55 351 -81 q 323 -107 272 -107 q 240 -107 206 -93 q 173 -80 146 -47 q 91 22 68 87 q 44 152 44 210 q 44 268 63 318 q 81 369 110 408 q 138 447 170 473 q 203 500 231 512 z m 305 313 q 290 312 272 298 q 254 284 241 259 q 228 234 228 204 q 228 174 245 141 q 275 165 293 218 q 310 271 310 306 l 310 313 q 308 313 305 313 z"},".":{"x_min":0,"x_max":128,"ha":128,"o":"m 36 6 q 36 8 36 10 q 36 19 40 29 q 44 40 53 43 q 55 43 59 43 q 68 43 79 40 q 89 36 92 26 q 93 21 93 17 q 93 10 92 3 q 90 -4 89 -6 q 82 -15 69 -15 q 59 -15 49 -10 q 39 -4 36 6 z"},"p":{"x_min":0,"x_max":281,"ha":281,"o":"m 9 379 q 19 376 29 375 q 45 373 59 368 q 74 364 83 353 q 92 343 92 322 q 92 317 92 313 q 100 334 112 351 q 124 368 143 375 q 150 377 158 377 q 181 377 202 361 q 222 345 235 312 q 248 278 248 228 q 248 213 247 196 q 245 168 236 137 q 227 105 211 76 q 195 47 173 28 q 150 9 121 9 q 100 9 76 21 q 74 -54 74 -123 q 74 -192 76 -251 q 73 -265 63 -270 q 54 -276 43 -276 q 32 -276 22 -271 q 11 -266 7 -257 q 6 -230 5 -204 q 1 -126 -1 -48 q -3 30 -3 107 q -3 244 9 379 z m 140 315 q 115 311 102 270 q 88 229 83 174 q 78 118 78 74 q 78 59 78 46 l 80 46 q 101 46 117 71 q 133 96 144 131 q 155 167 160 202 q 166 237 166 260 l 166 262 q 166 291 158 303 q 150 315 140 315 z"},"X":{"x_min":0,"x_max":690,"ha":690,"o":"m 188 667 q 194 667 200 667 q 246 656 283 613 q 320 570 350 509 q 380 448 404 386 q 458 472 504 535 q 550 598 579 615 q 594 624 611 624 q 626 624 640 616 q 654 608 662 589 q 625 577 563 500 q 500 423 430 318 q 432 314 433 310 q 437 299 441 289 q 463 232 497 169 q 531 106 579 58 q 626 10 692 -2 q 646 -42 604 -42 q 569 -42 537 -18 q 506 5 477 44 q 449 83 424 132 q 398 182 376 235 q 258 51 210 -39 q 194 -39 177 -34 q 160 -29 154 -14 q 193 40 277 181 q 312 239 350 300 l 339 326 q 333 342 327 360 q 312 400 295 443 q 277 486 258 524 q 239 562 219 586 q 198 609 177 609 q 161 609 144 591 q 127 573 111 532 q 104 514 99 487 q 94 459 94 432 q 94 408 99 387 q 104 367 116 355 q 101 352 88 352 q 47 352 24 381 q 0 410 0 456 q 0 496 21 543 q 45 597 94 632 q 143 667 188 667 z"},"*":{"x_min":0,"x_max":500,"ha":500,"o":""},"Y":{"x_min":0,"x_max":575,"ha":575,"o":"m 222 668 q 233 668 244 666 q 282 661 302 626 q 321 591 321 516 q 321 486 318 450 q 314 411 314 376 q 314 312 324 271 q 334 231 349 231 l 349 231 q 371 231 388 262 q 405 294 418 344 q 431 393 440 449 q 449 506 454 557 q 459 608 462 643 q 463 654 467 659 q 471 664 477 664 q 483 664 491 660 q 511 649 526 632 q 542 614 546 596 q 548 584 548 556 q 548 517 545 455 q 542 392 535 318 q 529 247 515 183 q 502 119 479 69 q 455 20 419 -9 q 384 -38 333 -38 l 333 -38 q 286 -38 254 -21 q 223 -4 201 28 q 185 56 185 82 q 185 113 200 136 q 214 160 229 162 q 241 78 272 42 q 304 6 330 6 q 370 8 394 43 q 418 77 431 128 q 444 178 449 230 q 453 283 453 318 l 453 327 q 439 267 410 227 q 381 188 343 188 q 336 188 330 189 q 294 197 273 225 q 252 252 244 294 q 235 336 235 385 q 235 435 242 487 q 247 522 247 548 q 247 589 237 607 q 228 625 213 625 q 189 625 160 590 q 131 554 109 501 q 96 465 96 424 q 96 391 105 356 q 91 353 79 353 q 42 353 21 378 q 0 404 0 443 q 0 466 8 492 q 16 518 32 544 q 65 598 116 632 q 167 667 222 668 z"},"c":{"x_min":0,"x_max":237,"ha":237,"o":"m 116 373 q 144 373 169 363 q 194 353 194 334 q 194 318 167 297 q 167 300 167 302 q 167 312 162 319 q 156 326 148 326 q 142 326 135 320 q 112 289 101 247 q 89 204 89 162 q 89 108 109 68 q 118 52 129 45 q 141 37 152 37 q 173 37 192 55 q 210 73 220 102 q 227 123 232 148 q 238 174 240 194 q 240 201 244 205 q 247 208 251 208 q 255 208 259 205 q 262 201 262 195 l 262 193 q 257 137 244 91 q 238 74 226 52 q 214 31 195 14 q 176 -3 148 -3 q 97 -3 65 23 q 32 50 17 92 q 1 134 1 182 q 1 230 16 277 q 32 324 61 357 q 69 365 84 369 q 99 373 116 373 z"},"!":{"x_min":0,"x_max":178,"ha":178,"o":"m 79 138 l 79 140 q 79 152 76 212 q 74 278 71 365 q 68 452 68 519 q 68 592 74 609 q 82 622 96 628 q 111 635 124 635 q 135 635 143 630 q 146 625 146 591 q 146 521 137 385 q 127 249 121 165 q 118 126 118 119 q 117 110 113 105 q 109 101 104 101 q 97 101 89 110 q 82 119 79 138 z m 69 35 q 86 46 98 46 q 103 46 108 44 q 116 42 122 32 q 127 22 127 8 q 127 -1 125 -11 q 117 -39 95 -39 q 80 -39 61 -25 q 47 -13 47 -1 q 47 11 55 21 q 63 30 69 35 z"},"/":{"x_min":0,"x_max":586,"ha":586,"o":"m 615 844 q 625 852 636 852 q 646 852 654 847 q 662 842 664 833 q 659 818 562 672 q 465 526 337 336 q 208 146 107 1 q 6 -145 -9 -159 q -18 -166 -24 -166 q -33 -166 -37 -154 q -41 -142 -42 -126 q -37 -107 61 38 q 158 184 286 370 q 415 557 515 700 q 615 844 615 844 z"},"[":{"x_min":0,"x_max":147,"ha":147,"o":"m 175 -174 q 175 -174 157 -176 q 140 -178 118 -178 q 102 -178 85 -176 q 69 -174 57 -169 q 47 -162 41 -85 q 34 -9 31 109 q 28 227 28 352 q 28 514 33 645 q 38 775 48 795 q 58 809 81 814 q 104 819 129 819 q 149 819 167 818 q 186 816 197 814 q 208 812 208 812 q 208 812 209 807 q 210 803 210 796 q 210 786 206 776 q 201 767 186 767 q 169 767 148 764 q 127 761 111 758 q 96 755 96 755 q 96 755 91 664 q 86 573 82 439 q 77 304 77 173 q 77 76 81 -5 q 85 -85 96 -126 q 116 -129 132 -129 q 155 -129 168 -126 q 171 -126 173 -126 q 181 -126 185 -132 q 188 -138 188 -145 q 188 -155 184 -164 q 180 -172 175 -174 z"},"6":{"x_min":0,"x_max":457,"ha":457,"o":"m 203 699 q 246 699 291 644 q 294 639 294 635 q 294 627 281 625 q 268 622 251 620 q 238 619 228 617 q 183 578 146 520 q 109 462 92 359 q 136 450 219 473 q 246 468 276 457 q 307 447 334 427 q 361 408 378 376 q 396 344 396 294 q 396 274 392 250 q 389 240 385 229 q 372 189 357 152 q 342 114 321 84 q 300 54 271 36 q 241 18 198 18 q 170 18 137 26 q 71 68 36 145 q 1 222 1 314 q 1 402 34 494 q 67 586 136 666 q 168 699 201 699 z m 249 396 q 207 396 173 370 q 140 344 120 301 q 100 258 100 207 q 100 173 110 137 q 121 102 143 68 q 147 68 153 68 q 170 68 192 76 q 214 83 236 107 q 258 131 277 178 q 295 225 306 302 q 307 306 307 311 q 307 326 302 346 q 298 366 286 381 q 273 396 250 396 z"},"r":{"x_min":0,"x_max":205,"ha":205,"o":"m -1 373 q 16 373 24 363 q 31 354 34 334 q 38 317 49 305 q 60 293 96 285 q 120 275 129 262 q 138 250 138 226 q 138 212 136 192 q 133 157 133 131 q 133 84 140 62 q 147 41 157 41 q 167 41 179 61 q 190 82 198 121 q 205 157 208 193 q 209 201 213 204 q 216 208 221 208 q 225 208 228 204 q 231 201 231 195 l 231 193 q 226 113 209 61 q 193 8 156 2 q 151 1 146 1 q 133 1 122 6 q 92 16 77 48 q 62 81 62 137 l 62 140 l 69 244 q 69 246 69 248 q 69 253 66 255 q 62 257 58 258 q 57 258 57 258 q 38 264 28 273 q 29 259 29 241 q 29 214 27 193 q 25 187 22 182 q 18 178 14 178 q 8 178 4 193 q 4 193 5 204 q 5 215 5 230 q 5 250 3 273 q 1 296 -6 311 q -16 322 -20 337 q -24 353 -26 370 q -12 373 -1 373 z"},"2":{"x_min":0,"x_max":510,"ha":510,"o":"m 156 400 q 157 397 157 396 q 157 389 146 389 q 135 389 117 397 q 99 405 81 421 q 63 437 51 461 q 38 485 38 519 q 38 540 44 564 q 83 628 146 667 q 209 706 272 706 q 311 706 344 689 q 378 672 402 635 q 411 615 417 592 q 422 569 422 542 q 422 497 400 434 q 378 372 323 285 q 268 199 170 82 q 213 76 256 76 q 298 76 339 80 q 380 83 421 88 q 435 90 449 91 q 455 82 455 72 q 455 53 435 35 q 415 17 379 8 q 295 8 193 11 q 91 14 58 22 q 36 29 23 39 q 11 48 6 58 q 1 68 1 76 q 1 83 4 87 q 6 92 8 93 l 66 90 q 140 161 204 252 q 268 343 309 434 q 350 525 350 588 q 350 628 331 652 q 312 658 291 658 q 251 658 212 638 q 173 619 147 583 q 121 548 121 501 q 121 479 129 453 q 138 427 156 400 z"},"{":{"x_min":0,"x_max":244,"ha":244,"o":"m 278 818 q 290 807 290 796 q 290 787 283 778 q 283 778 277 779 q 271 780 261 780 q 250 780 238 777 q 226 774 217 766 q 192 735 178 674 q 165 612 159 547 q 153 481 151 438 q 150 419 150 409 q 148 390 140 378 q 131 366 121 360 q 111 354 103 352 q 96 350 96 350 q 96 350 101 348 q 106 346 114 341 q 122 335 130 325 q 139 315 146 298 q 155 268 159 176 q 164 85 166 0 q 167 -65 168 -88 q 172 -113 191 -121 q 210 -128 231 -129 q 247 -130 256 -134 q 269 -143 269 -155 q 269 -165 260 -172 q 252 -180 232 -180 q 210 -180 190 -177 q 169 -173 153 -156 q 137 -140 129 -101 q 123 -70 117 -11 q 111 48 106 114 q 100 186 94 240 q 89 294 84 306 q 79 315 68 319 q 58 323 46 324 q 37 326 30 329 q 23 331 22 337 l 22 340 q 22 348 24 353 q 26 357 28 360 q 30 362 30 362 q 30 362 38 364 q 45 366 55 371 q 65 376 74 384 q 83 392 88 404 q 94 422 104 489 q 115 567 133 654 q 150 742 172 779 q 182 793 199 801 q 216 809 234 812 q 252 816 265 817 q 278 818 278 818 z"},"9":{"x_min":0,"x_max":358,"ha":358,"o":"m 139 698 l 219 664 q 258 640 279 568 q 300 496 300 406 q 300 381 298 355 q 286 200 236 104 q 186 9 122 9 q 85 9 48 44 q 44 48 44 52 q 44 55 47 57 q 50 59 54 59 q 56 59 58 58 q 67 57 76 57 q 110 57 134 77 q 158 98 174 130 q 190 163 200 201 q 209 239 213 274 q 217 310 218 337 q 172 291 125 291 q 93 291 64 315 q 35 339 13 392 q 2 425 2 462 q 2 503 17 547 q 31 590 61 629 q 91 667 139 698 z m 183 636 l 146 608 q 112 579 88 525 q 63 472 63 421 q 63 392 73 369 q 83 346 105 333 l 108 333 q 144 333 168 357 q 192 381 205 420 q 217 458 217 502 q 217 538 209 573 q 200 608 183 636 z"}," ":{"x_min":0,"x_max":248,"ha":248,"o":""},"I":{"x_min":0,"x_max":390,"ha":390,"o":"m 245 666 q 285 660 307 623 q 329 586 329 506 q 329 480 327 450 q 320 382 315 299 q 310 216 310 141 q 310 82 315 36 q 319 -10 331 -33 q 317 -39 302 -39 q 277 -39 256 -22 q 234 -6 230 26 q 226 55 226 98 q 226 177 236 285 q 246 392 258 486 q 262 519 262 543 q 262 586 251 605 q 240 625 223 625 q 196 625 164 589 q 132 554 110 500 q 97 465 97 423 q 97 391 106 356 q 92 353 79 353 q 43 353 22 378 q 1 404 1 443 q 1 466 9 492 q 17 518 33 544 q 66 597 118 632 q 169 667 223 667 q 234 667 245 666 z"},"H":{"x_min":0,"x_max":643,"ha":643,"o":"m 220 667 q 232 667 243 665 q 283 659 305 622 q 327 585 327 506 q 327 480 324 449 q 319 385 314 310 q 396 316 477 330 q 485 525 497 636 q 505 638 513 638 q 531 638 546 629 q 562 620 562 600 q 552 514 550 343 q 586 351 621 360 q 628 360 633 354 q 637 347 637 338 q 637 326 627 312 q 616 297 591 288 q 573 284 550 281 q 550 172 556 84 q 563 -4 578 -34 q 561 -41 543 -41 q 520 -41 500 -25 q 480 -10 477 25 q 473 83 473 158 q 473 213 475 273 q 394 268 312 267 q 308 199 308 138 q 308 80 312 35 q 317 -11 329 -34 q 314 -40 300 -40 q 275 -40 253 -23 q 232 -7 228 25 q 224 54 224 97 q 224 169 232 268 q 168 270 138 273 q 130 275 127 278 q 124 281 124 284 q 124 287 126 290 q 127 293 129 295 q 131 298 133 299 q 135 301 135 301 q 186 302 235 304 q 245 400 256 485 q 260 518 260 542 q 260 585 249 604 q 238 624 221 624 q 194 624 162 588 q 130 553 108 500 q 95 464 95 422 q 95 390 104 355 q 89 352 77 352 q 41 352 20 377 q 0 403 0 442 q 0 465 7 491 q 15 517 31 543 q 64 597 115 631 q 165 665 220 667 z"},"4":{"x_min":0,"x_max":563,"ha":563,"o":"m 227 696 q 277 690 301 670 q 325 651 325 621 q 325 578 281 518 q 236 458 158 393 q 175 393 192 393 q 209 393 227 393 q 244 393 261 393 q 297 393 332 390 q 367 388 398 379 l 421 677 q 430 678 439 679 q 456 682 470 682 q 488 682 500 673 q 513 665 513 637 l 513 635 l 465 43 q 465 29 460 24 q 455 18 446 18 q 437 18 424 23 q 411 28 397 35 q 390 39 382 42 q 384 82 387 120 q 390 149 392 179 q 394 208 394 240 q 394 274 390 311 q 347 312 305 312 q 193 312 94 300 q 71 294 55 294 q 31 294 21 304 q 10 314 6 330 q 3 345 1 362 q 1 371 0 379 q 67 418 120 478 q 173 537 214 600 q 227 625 227 642 z"},"~":{"x_min":0,"x_max":372,"ha":372,"o":"m 123 182 q 146 180 166 172 q 186 164 202 154 q 229 137 253 135 l 254 135 q 270 135 281 141 q 292 147 299 155 q 306 163 310 169 q 313 176 313 176 q 313 176 314 169 q 315 162 315 151 q 315 137 311 121 q 306 104 292 92 q 279 80 252 79 l 249 79 q 224 79 202 87 q 180 95 162 104 q 137 117 116 121 q 113 122 109 122 q 95 122 85 115 q 74 109 68 101 q 61 93 58 87 q 55 81 55 81 q 45 98 45 115 q 45 141 66 161 q 87 182 123 182 z"},"D":{"x_min":0,"x_max":598,"ha":598,"o":"m 252 667 q 255 667 257 667 q 259 667 261 667 q 343 667 401 638 q 459 610 496 562 q 532 514 549 453 q 566 392 566 328 l 566 318 q 565 271 553 221 q 540 171 516 125 q 492 79 458 42 q 423 5 380 -17 q 336 -39 283 -39 l 283 -39 q 231 -39 185 -23 q 138 -7 108 28 q 101 39 101 53 q 101 73 111 91 q 122 109 136 112 q 163 62 199 38 q 235 14 274 14 q 324 14 370 50 q 417 86 446 153 q 476 220 477 315 l 477 317 q 477 374 465 428 q 454 482 429 526 q 404 569 366 595 q 328 621 274 621 q 193 618 145 564 q 97 511 97 430 q 97 395 107 356 q 93 353 81 353 q 43 353 22 379 q 0 406 0 446 q 0 491 30 544 q 65 602 124 634 q 184 667 252 667 z m 218 572 q 238 572 253 564 q 268 557 268 536 l 268 535 q 265 476 262 405 q 259 334 259 266 q 259 194 264 137 q 270 79 284 52 q 270 46 255 46 q 238 46 222 53 q 207 60 196 74 q 186 88 186 110 l 186 144 q 186 223 190 302 q 194 382 198 446 q 204 525 204 558 q 204 566 203 571 q 210 572 218 572 z"},"^":{"x_min":0,"x_max":342,"ha":342,"o":"m 139 699 q 160 699 180 692 q 200 685 220 673 q 226 658 238 638 q 250 619 267 604 q 283 589 303 589 l 306 589 q 306 589 302 583 q 298 578 291 570 q 283 563 273 557 q 263 552 250 552 q 244 552 237 554 q 212 562 199 577 q 186 593 180 609 q 174 626 173 638 q 171 649 171 649 q 148 598 113 560 q 109 561 104 562 q 90 566 76 572 q 61 577 52 587 q 71 605 91 631 q 110 657 125 678 q 139 699 139 699 z"},"0":{"x_min":0,"x_max":411,"ha":411,"o":"m 165 698 l 257 667 q 277 660 300 629 q 323 599 340 547 q 356 495 356 424 q 356 415 356 405 l 356 388 q 356 338 353 286 q 349 234 339 187 q 329 139 309 101 q 290 62 259 40 q 228 18 182 18 l 173 18 q 114 26 75 69 q 37 112 18 177 q 0 242 0 316 q 0 393 19 469 q 38 545 74 606 q 111 666 165 698 z m 229 640 q 182 618 146 552 q 110 485 98 395 q 89 346 89 286 q 89 244 94 202 q 100 159 111 125 q 122 90 141 68 q 159 47 186 47 q 188 47 191 47 q 235 99 258 188 q 281 278 281 377 q 281 450 268 518 q 255 587 229 640 z"},"F":{"x_min":0,"x_max":415,"ha":415,"o":"m 223 667 q 234 667 245 666 q 284 660 304 625 q 325 589 325 512 q 325 484 322 450 q 320 425 317 398 q 335 400 351 400 q 377 400 392 392 q 406 383 410 373 q 415 363 415 354 q 415 349 414 344 q 413 340 412 337 q 411 335 411 335 q 361 358 314 358 q 305 243 305 139 q 305 82 310 36 q 314 -10 326 -33 q 312 -39 298 -39 q 274 -39 254 -22 q 234 -6 230 26 q 226 55 226 98 q 226 202 243 353 q 225 350 207 347 q 185 342 162 339 q 162 339 159 340 q 157 341 154 344 q 150 346 148 350 q 145 354 145 360 l 145 361 q 145 361 175 369 q 204 377 246 386 q 252 439 258 486 q 262 519 262 543 q 262 586 251 605 q 240 625 223 625 q 196 625 164 589 q 132 554 110 500 q 97 465 97 423 q 97 391 106 355 q 92 352 80 352 q 43 352 22 378 q 1 403 1 443 q 1 466 9 491 q 17 517 33 544 q 66 597 117 632 q 167 666 223 667 z"},"`":{"x_min":0,"x_max":281,"ha":281,"o":"m 65 657 q 80 668 98 676 q 116 684 141 684 l 145 684 q 166 648 186 628 q 205 607 218 597 q 226 591 230 586 q 234 582 234 578 q 234 575 229 571 q 218 568 206 568 q 179 568 150 582 q 122 595 99 615 q 77 636 65 657 z"},"k":{"x_min":0,"x_max":295,"ha":295,"o":"m 139 574 q 107 547 96 498 q 84 449 83 407 q 116 420 133 450 q 149 480 160 520 q 162 529 162 536 q 162 549 156 558 q 149 567 139 574 z m 192 312 q 177 309 161 298 q 145 288 127 261 l 112 233 q 183 275 192 312 z m 76 168 l 64 140 l 73 6 q 64 -2 55 -2 q 50 -2 40 2 q 30 7 21 21 q 11 36 9 44 q 1 166 1 278 l 1 284 q 1 392 19 478 q 36 563 83 611 l 96 609 q 108 608 126 602 q 145 597 163 584 q 182 572 196 550 q 196 542 196 535 q 196 483 181 450 q 166 417 137 397 q 109 378 77 365 l 66 210 q 92 270 126 302 q 161 335 206 336 q 236 312 240 282 q 241 279 241 276 q 241 249 207 214 l 150 171 q 163 148 179 125 q 198 98 218 81 q 232 70 245 70 q 250 70 261 74 q 272 79 283 121 q 292 157 297 194 q 298 204 305 207 q 308 208 310 208 q 313 208 315 206 q 320 203 320 195 l 320 194 q 311 114 292 60 q 272 5 234 2 q 189 4 155 35 q 121 67 101 106 q 81 145 76 168 z"},"u":{"x_min":0,"x_max":309,"ha":309,"o":"m 24 373 q 59 367 79 347 q 100 327 100 286 l 100 284 q 95 247 88 207 q 83 178 78 150 q 74 123 74 99 q 74 75 80 56 q 86 36 96 36 q 105 36 116 53 q 141 89 148 132 q 155 175 156 222 q 158 257 162 293 q 166 329 178 363 q 180 362 183 362 q 202 360 219 357 q 235 353 246 343 q 257 333 257 312 q 257 305 255 294 q 252 263 246 230 q 243 212 240 193 q 237 158 237 132 q 237 84 245 62 q 252 41 262 41 q 272 41 283 61 q 294 82 302 120 q 310 157 312 193 q 313 200 317 204 q 321 207 325 207 q 329 207 333 204 q 336 200 336 194 l 336 193 q 330 113 314 60 q 297 7 260 1 q 256 1 252 1 q 238 1 227 5 q 186 20 173 74 q 166 58 153 41 q 140 24 123 13 q 107 1 89 1 q 55 1 35 22 q 15 43 7 79 q -1 115 -1 160 q -1 209 6 265 q 14 320 24 373 z"},"]":{"x_min":0,"x_max":174,"ha":174,"o":"m -11 -174 q -16 -172 -20 -163 q -24 -154 -24 -145 q -24 -137 -21 -131 q -17 -125 -9 -125 q -7 -125 -4 -126 q 9 -129 33 -129 q 48 -129 68 -126 q 79 -85 83 -5 q 87 76 87 174 q 87 304 82 439 q 78 574 73 665 q 68 756 68 756 q 68 756 53 759 q 37 762 16 764 q -5 767 -22 767 q -37 767 -42 777 q -46 787 -46 796 q -46 803 -45 807 q -44 812 -44 812 q -44 812 -33 814 q -21 816 -3 818 q 15 819 35 819 q 61 819 83 814 q 106 809 116 795 q 126 775 131 645 q 136 514 136 352 q 136 227 133 109 q 130 -9 124 -85 q 117 -162 107 -169 q 95 -174 79 -176 q 62 -178 46 -178 q 24 -178 7 -176 q -11 -174 -11 -174 z"},"U":{"x_min":0,"x_max":635,"ha":635,"o":"m 498 643 q 501 664 514 664 q 520 664 528 659 q 547 649 562 631 q 578 614 583 595 q 580 547 570 475 q 562 411 554 334 q 547 258 547 180 q 547 125 552 71 q 558 17 571 -33 q 558 -39 545 -39 q 523 -39 505 -22 q 488 -6 480 26 q 474 55 474 105 q 474 146 478 200 q 467 156 445 103 q 424 50 395 10 q 365 -31 331 -38 q 324 -39 318 -39 q 284 -39 264 -10 q 245 19 237 67 q 229 114 229 170 q 229 242 237 315 q 245 389 252 444 q 255 468 257 486 q 261 519 261 543 q 261 586 250 605 q 239 624 222 624 q 196 624 164 589 q 131 554 110 500 q 97 465 97 423 q 97 391 105 355 q 91 352 79 352 q 42 352 22 378 q 1 403 1 443 q 1 466 9 491 q 16 517 32 544 q 65 597 117 632 q 168 667 223 667 q 233 667 244 666 q 271 662 292 644 q 312 625 324 590 q 335 555 335 500 q 335 477 333 450 q 332 436 330 419 q 325 363 320 290 q 314 217 314 154 q 314 100 321 63 q 327 26 344 26 q 346 26 349 26 q 382 42 409 121 q 435 200 454 305 q 473 410 484 504 q 495 597 498 643 z"},"o":{"x_min":0,"x_max":281,"ha":281,"o":"m 104 375 l 106 375 q 129 375 155 365 q 180 355 197 341 q 211 329 221 299 q 230 269 230 228 q 230 196 223 160 q 229 158 237 158 q 253 158 270 167 q 287 176 292 196 q 292 203 296 207 q 300 210 304 210 q 309 210 312 207 q 315 204 315 198 l 315 196 q 310 162 286 146 q 262 129 233 129 q 224 129 215 130 q 204 96 188 66 q 171 37 153 18 q 134 0 116 0 q 75 5 48 29 q 21 52 9 88 q -3 124 -3 165 q -3 220 18 275 q 39 331 79 368 q 89 375 104 375 z m 175 321 q 156 311 140 291 q 124 270 116 248 q 120 226 141 201 q 163 177 193 168 q 195 174 197 189 q 199 205 199 225 q 199 252 194 280 q 189 308 175 321 z m 88 209 q 71 162 71 127 q 71 87 84 65 q 95 47 108 47 q 122 47 137 62 q 151 78 163 97 q 175 117 181 133 q 160 137 130 158 q 100 178 88 209 z"},"N":{"x_min":0,"x_max":600,"ha":600,"o":"m 514 667 q 530 667 544 656 q 557 646 567 629 q 577 613 581 596 q 577 546 567 470 q 558 404 549 327 q 541 249 541 169 q 541 117 546 66 q 552 15 564 -33 q 550 -38 536 -38 q 511 -38 488 -22 q 466 -5 458 26 q 451 55 451 104 q 451 194 467 330 q 483 465 508 597 q 483 584 444 529 q 405 474 367 371 q 330 269 309 115 q 310 11 330 -33 q 316 -39 301 -39 q 276 -39 255 -22 q 233 -6 229 26 q 225 55 225 98 q 225 177 235 285 q 245 392 257 486 q 261 519 261 543 q 261 586 250 605 q 239 625 222 625 q 195 625 163 589 q 131 554 109 500 q 96 465 96 424 q 96 391 105 356 q 91 353 79 353 q 42 353 21 378 q 0 404 0 443 q 0 466 8 492 q 16 518 32 544 q 65 598 117 633 q 168 667 223 667 q 233 667 244 666 q 284 661 306 624 q 328 586 328 506 q 328 480 326 450 q 325 440 324 430 q 321 393 318 351 q 361 489 421 578 q 481 667 514 667 z"},"+":{"x_min":0,"x_max":308,"ha":308,"o":"m 157 270 q 167 270 172 262 q 174 257 176 234 q 178 210 179 179 q 210 180 232 180 q 254 180 254 180 q 262 177 266 170 q 270 163 270 156 q 270 146 262 141 q 257 139 234 136 q 211 134 180 133 q 180 105 178 83 q 177 61 173 54 q 166 43 158 43 q 151 43 146 50 q 140 57 138 68 q 137 74 136 92 q 135 109 135 132 q 106 132 84 134 q 61 136 54 140 q 43 147 43 154 q 43 161 50 167 q 57 172 67 174 q 74 175 92 176 q 110 177 134 178 q 133 209 133 232 q 132 255 132 255 q 136 262 143 266 q 150 270 157 270 z"},"G":{"x_min":0,"x_max":459,"ha":459,"o":"m 269 667 q 320 667 353 647 q 386 627 402 596 q 418 565 418 533 q 418 498 401 469 q 383 439 350 428 q 342 425 334 425 q 318 425 304 435 q 290 445 288 460 q 317 470 332 499 q 348 527 348 558 q 348 583 336 601 q 325 620 300 620 l 297 620 q 229 614 184 561 q 140 507 119 427 q 98 347 98 265 q 98 197 112 137 q 126 77 154 40 q 181 3 220 3 l 222 3 q 251 5 275 34 q 298 63 314 109 q 330 154 337 205 q 338 239 340 268 q 264 242 186 230 q 174 237 165 254 q 155 271 155 288 q 155 294 157 300 q 170 296 191 296 q 221 296 259 301 q 296 305 324 310 q 352 314 352 314 q 393 312 408 292 q 405 228 405 159 q 405 78 411 7 q 416 -63 430 -91 q 416 -97 401 -97 q 384 -97 368 -90 q 353 -83 343 -69 q 333 -55 333 -34 l 333 -32 q 333 2 333 45 q 320 22 303 3 q 286 -16 263 -27 q 241 -39 213 -39 q 154 -39 105 7 q 57 53 29 132 q 0 210 0 309 l 0 311 q 1 406 34 485 q 67 564 127 613 q 187 662 269 667 z"},"q":{"x_min":0,"x_max":301,"ha":301,"o":"m 111 374 l 206 333 q 219 327 229 320 q 240 312 247 302 q 254 291 254 273 q 254 267 253 261 l 213 -129 q 231 -106 254 -94 q 277 -82 301 -82 q 327 -82 350 -97 q 373 -112 386 -143 q 386 -147 386 -152 q 386 -185 371 -211 q 355 -238 333 -254 q 310 -271 286 -271 q 275 -271 264 -266 q 292 -232 308 -201 q 324 -170 324 -145 q 324 -122 309 -104 q 264 -122 241 -152 q 219 -182 210 -214 q 201 -246 198 -270 q 196 -285 194 -294 q 191 -304 187 -304 q 186 -304 184 -303 l 182 -303 q 163 -303 152 -287 q 142 -271 138 -243 q 134 -215 134 -180 q 134 -125 139 -61 q 142 -17 144 24 q 133 12 122 7 q 112 2 102 2 q 90 2 79 7 q 68 11 57 18 q 27 39 11 76 q -4 113 -4 157 q -4 214 24 272 q 52 331 111 374 z m 177 311 q 121 271 97 216 q 72 161 72 106 q 72 75 79 46 q 82 35 91 35 q 95 35 100 38 q 114 46 125 61 q 135 76 144 93 q 146 96 147 99 q 152 107 154 121 z"},"d":{"x_min":0,"x_max":362,"ha":362,"o":"m 229 608 q 250 608 283 599 q 315 591 328 558 q 342 525 342 479 q 342 424 328 360 q 314 295 294 236 q 274 176 253 133 q 255 127 256 122 q 259 112 262 103 q 271 73 285 54 q 298 36 312 36 q 323 36 334 52 q 344 67 352 103 q 361 149 364 194 q 365 201 368 204 q 372 207 375 207 q 380 207 383 204 q 387 201 387 195 l 387 193 q 383 141 375 97 q 368 53 353 26 q 338 0 312 -2 q 285 -2 263 12 q 240 25 230 43 q 221 57 213 72 q 203 55 189 38 q 176 21 160 9 q 145 -2 127 -2 q 115 -2 102 4 q 62 26 40 53 q 18 80 9 109 q 0 138 0 166 q 0 193 6 217 q 11 240 18 256 q 24 272 28 278 q 38 302 53 311 q 69 320 89 320 q 112 320 142 314 q 146 313 149 313 q 149 447 187 577 q 190 592 200 600 q 209 608 228 608 z m 271 579 q 271 579 260 551 q 250 522 239 467 q 229 411 229 328 q 229 288 232 241 q 235 212 241 187 q 253 212 271 262 q 288 312 301 371 q 314 430 314 480 q 314 517 304 543 q 294 570 271 579 z m 151 282 q 114 263 91 222 q 67 180 67 133 q 67 95 86 59 q 102 31 123 31 q 131 31 139 36 q 159 50 174 73 q 190 95 196 110 l 191 122 q 189 129 186 138 q 182 150 177 165 q 167 194 160 227 q 154 256 151 282 z"},"1":{"x_min":0,"x_max":314,"ha":314,"o":"m 0 561 q 34 577 56 604 q 78 630 96 661 q 106 677 117 693 q 137 696 154 696 q 182 696 201 686 q 219 676 219 647 q 219 640 218 631 l 200 59 l 248 64 l 251 41 q 217 29 176 25 q 136 20 93 18 q 77 19 68 21 q 59 24 51 28 q 50 28 50 28 q 53 36 69 39 q 85 42 108 44 l 108 605 q 90 596 73 577 q 61 564 48 554 q 36 544 24 544 q 12 544 0 561 z"},"5":{"x_min":0,"x_max":495,"ha":495,"o":"m 28 680 q 72 686 116 689 q 160 693 216 693 q 276 693 358 688 q 359 687 364 682 q 368 676 372 668 q 376 660 376 650 q 376 643 372 635 q 367 627 356 621 l 118 622 q 116 593 112 565 q 109 546 107 526 q 104 506 104 483 q 104 464 107 443 q 154 464 203 464 q 271 464 328 431 q 385 397 405 346 q 417 318 417 277 q 417 237 404 190 q 390 144 360 102 q 330 60 280 30 q 219 8 172 8 q 122 8 85 30 q 49 51 22 86 q 18 91 18 95 q 18 100 22 103 q 27 106 33 106 q 43 106 53 98 q 98 72 139 72 q 184 72 222 95 q 260 118 289 154 q 317 190 333 231 q 350 271 350 306 q 350 327 342 344 q 319 371 291 383 q 263 396 234 396 q 196 396 163 379 q 129 363 109 336 q 101 334 93 334 q 68 334 45 349 q 22 365 1 391 z"}}}
